<svg xmlns="http://www.w3.org/2000/svg" viewBox="0 0 512 512" width="512" height="512">
  <rect width="512" height="512" rx="96" fill="#143b45"/>
  <circle cx="256" cy="262" r="104" fill="#e0b878"/>
  <g stroke="#c8954a" stroke-width="22" stroke-linecap="round" fill="none">
    <path d="M256 70v44"/>
    <path d="M104 122l30 30"/>
    <path d="M408 122l-30 30"/>
  </g>
  <g stroke="#7fb3bf" stroke-width="26" stroke-linecap="round" fill="none">
    <path d="M52 322c40 0 40 26 80 26s40-26 80-26 40 26 80 26 40-26 80-26 40 26 80 26"/>
    <path d="M52 392c40 0 40 26 80 26s40-26 80-26 40 26 80 26 40-26 80-26 40 26 80 26"/>
  </g>
</svg>
