<svg xmlns="http://www.w3.org/2000/svg" viewBox="0 0 192 192" width="192" height="192">
  <rect width="192" height="192" rx="36" fill="#143b45"/>
  <circle cx="96" cy="98" r="39" fill="#e0b878"/>
  <g stroke="#c8954a" stroke-width="8.5" stroke-linecap="round" fill="none">
    <path d="M96 26v17"/>
    <path d="M39 46l11 11"/>
    <path d="M153 46l-11 11"/>
  </g>
  <g stroke="#7fb3bf" stroke-width="10" stroke-linecap="round" fill="none">
    <path d="M20 121c15 0 15 10 30 10s15-10 30-10 15 10 30 10 15-10 30-10 15 10 30 10"/>
    <path d="M20 147c15 0 15 10 30 10s15-10 30-10 15 10 30 10 15-10 30-10 15 10 30 10"/>
  </g>
</svg>
